<svg width="32" height="32" viewBox="0 0 32 32" fill="currentColor" xmlns="http://www.w3.org/2000/svg">
<path d="M21 22C22.1046 22 23 21.1046 23 20C23 18.8954 22.1046 18 21 18C19.8954 18 19 18.8954 19 20C19 21.1046 19.8954 22 21 22Z" fill="currentColor"/>
<path d="M14 14C15.1046 14 16 13.1046 16 12C16 10.8954 15.1046 10 14 10C12.8954 10 12 10.8954 12 12C12 13.1046 12.8954 14 14 14Z" fill="currentColor"/>
<path d="M29 20C29.5523 20 30 19.5523 30 19C30 18.4477 29.5523 18 29 18C28.4477 18 28 18.4477 28 19C28 19.5523 28.4477 20 29 20Z" fill="currentColor"/>
<path d="M26.5 30C25.8078 30 25.1311 29.7947 24.5555 29.4101C23.9799 29.0256 23.5313 28.4789 23.2664 27.8394C23.0015 27.1999 22.9322 26.4961 23.0673 25.8172C23.2023 25.1383 23.5356 24.5146 24.0251 24.0251C24.5146 23.5356 25.1383 23.2023 25.8172 23.0673C26.4961 22.9322 27.1999 23.0015 27.8394 23.2664C28.4789 23.5313 29.0256 23.9799 29.4101 24.5555C29.7947 25.1311 30 25.8078 30 26.5C29.9989 27.4279 29.6299 28.3176 28.9737 28.9737C28.3176 29.6299 27.4279 29.9989 26.5 30V30ZM26.5 25C26.2033 25 25.9133 25.088 25.6666 25.2528C25.42 25.4176 25.2277 25.6519 25.1142 25.926C25.0007 26.2001 24.9709 26.5017 25.0288 26.7926C25.0867 27.0836 25.2296 27.3509 25.4393 27.5607C25.6491 27.7704 25.9164 27.9133 26.2074 27.9712C26.4983 28.0291 26.7999 27.9994 27.074 27.8858C27.3481 27.7723 27.5824 27.58 27.7472 27.3334C27.912 27.0867 28 26.7967 28 26.5C27.9995 26.1023 27.8413 25.7211 27.5601 25.4399C27.2789 25.1587 26.8977 25.0005 26.5 25V25Z" fill="currentColor"/>
<path d="M14 30C13.2467 29.9996 12.5091 29.7841 11.874 29.379C10.5146 29.9911 8.99522 30.153 7.53734 29.8412C6.07946 29.5294 4.75925 28.7602 3.76913 27.6456C2.779 26.531 2.17071 25.1294 2.0329 23.6449C1.89509 22.1604 2.23496 20.6707 3.00299 19.3929C3.77102 18.1151 4.92705 17.116 6.30263 16.5411C7.6782 15.9663 9.2014 15.8458 10.6503 16.1971C12.0991 16.5485 13.3979 17.3534 14.3573 18.4945C15.3167 19.6357 15.8866 21.0534 15.984 22.541C16.7491 22.9777 17.3482 23.6552 17.6881 24.4679C18.0279 25.2806 18.0894 26.1829 17.863 27.0342C17.6365 27.8855 17.1349 28.638 16.4362 29.1744C15.7374 29.7109 14.8809 30.0012 14 30V30ZM12.116 26.972L12.655 27.467C12.8723 27.6689 13.1319 27.8197 13.415 27.9084C13.698 27.9971 13.9972 28.0215 14.2909 27.9798C14.5846 27.9381 14.8652 27.8314 15.1123 27.6673C15.3594 27.5033 15.5668 27.2862 15.7193 27.0318C15.8718 26.7774 15.9656 26.4922 15.9938 26.1969C16.022 25.9017 15.9839 25.6038 15.8822 25.3252C15.7806 25.0465 15.6181 24.7941 15.4065 24.5863C15.1948 24.3785 14.9395 24.2205 14.659 24.124L13.968 23.881L13.998 23.034C14.0074 21.9305 13.652 20.8547 12.987 19.9739C12.3221 19.0931 11.3848 18.4567 10.3209 18.1634C9.25694 17.8702 8.12594 17.9366 7.10363 18.3523C6.08133 18.7681 5.22497 19.5098 4.66766 20.4624C4.11035 21.4149 3.88329 22.5249 4.02176 23.6198C4.16024 24.7147 4.6565 25.7331 5.43342 26.5169C6.21034 27.3007 7.22441 27.806 8.31803 27.9541C9.41166 28.1022 10.5236 27.8849 11.481 27.336L12.116 26.972Z" fill="currentColor"/>
<path d="M24 16C22.4093 15.9982 20.8842 15.3654 19.7594 14.2406C18.6346 13.1158 18.0019 11.5908 18 10C18.0001 9.82202 18.0091 9.64413 18.027 9.46702C17.4105 9.12266 16.8973 8.61953 16.5409 8.00987C16.1844 7.4002 15.9977 6.70624 16 6.00002C16.0013 4.93956 16.4232 3.92292 17.1731 3.17306C17.9229 2.4232 18.9396 2.00135 20 2.00002C20.7062 1.99767 21.4002 2.18441 22.0099 2.54086C22.6195 2.8973 23.1227 3.41045 23.467 4.02702C23.648 4.01002 23.825 4.00002 24 4.00002C25.5913 4.00002 27.1174 4.63216 28.2427 5.75738C29.3679 6.8826 30 8.40872 30 10C30 11.5913 29.3679 13.1174 28.2427 14.2427C27.1174 15.3679 25.5913 16 24 16ZM20 4.00002C19.4698 4.00055 18.9614 4.21144 18.5864 4.58639C18.2114 4.96135 18.0006 5.46975 18 6.00002C18 6.42921 18.1395 6.84676 18.3974 7.18981C18.6553 7.53285 19.0177 7.7828 19.43 7.90202L20.332 8.17202L20.117 9.08902C19.9291 9.89662 19.9973 10.7427 20.3119 11.5098C20.6266 12.2769 21.1722 12.9271 21.8731 13.3701C22.574 13.8131 23.3954 14.027 24.2233 13.9822C25.0513 13.9373 25.8447 13.6358 26.4936 13.1196C27.1425 12.6034 27.6146 11.8981 27.8445 11.1014C28.0744 10.3048 28.0507 9.45633 27.7766 8.67378C27.5025 7.89123 26.9917 7.21338 26.315 6.73427C25.6382 6.25516 24.8292 5.99854 24 6.00002C23.6926 6.00356 23.3866 6.04249 23.088 6.11602L22.172 6.33002L21.902 5.43002C21.7828 5.01773 21.5329 4.65533 21.1898 4.39742C20.8468 4.13951 20.4292 4.00004 20 4.00002Z" fill="currentColor"/>
<path d="M6.5 11C5.60999 11 4.73996 10.7361 3.99994 10.2416C3.25991 9.74715 2.68314 9.04434 2.34254 8.22208C2.00195 7.39981 1.91283 6.49501 2.08647 5.6221C2.2601 4.74918 2.68868 3.94736 3.31802 3.31802C3.94736 2.68868 4.74918 2.2601 5.6221 2.08647C6.49501 1.91283 7.39981 2.00195 8.22208 2.34254C9.04434 2.68314 9.74715 3.25991 10.2416 3.99994C10.7361 4.73996 11 5.60999 11 6.5C10.9987 7.69307 10.5241 8.83689 9.68052 9.68052C8.83689 10.5241 7.69307 10.9987 6.5 11V11ZM6.5 4C6.00555 4 5.5222 4.14662 5.11108 4.42133C4.69995 4.69603 4.37952 5.08648 4.1903 5.54329C4.00108 6.00011 3.95158 6.50278 4.04804 6.98773C4.1445 7.47268 4.3826 7.91814 4.73223 8.26777C5.08187 8.6174 5.52732 8.8555 6.01228 8.95197C6.49723 9.04843 6.9999 8.99892 7.45671 8.8097C7.91353 8.62048 8.30397 8.30005 8.57868 7.88893C8.85338 7.4778 9 6.99446 9 6.5C8.99921 5.8372 8.73556 5.20178 8.26689 4.73311C7.79822 4.26444 7.1628 4.0008 6.5 4V4Z" fill="currentColor"/>
</svg>
